<svg width="16" height="16" viewBox="0 0 16 16" fill="none" xmlns="http://www.w3.org/2000/svg">
<g id="clojure">
<path
d="M3.9198 5.09123C4.5378 4.22908 5.41311 3.58539 6.41979 3.25275C7.42647 2.92012 8.51262 2.9157 9.52197 3.24012C10.5313 3.56455 11.4118 4.20109 12.0368 5.05818C12.6618 5.91526 12.9991 6.9487 13 8.0098C13 10.6541 10.2212 10.282 10.2212 10.282C10.7412 9.75715 11.0631 9.068 11.1321 8.33209C11.2011 7.59619 11.0129 6.85911 10.5996 6.24661C10.1862 5.6341 9.57336 5.18412 8.86555 4.97342C8.15773 4.76272 7.39881 4.80436 6.71824 5.09123C5.17225 4.20978 3.9198 5.09123 3.9198 5.09123Z"
fill="#466ACD" />
<path
d="M12.0802 10.9087C11.4622 11.7708 10.5869 12.4145 9.58025 12.7471C8.57358 13.0798 7.48743 13.0842 6.47808 12.7598C5.46873 12.4353 4.58822 11.7988 3.96323 10.9417C3.33823 10.0846 3.00099 9.05118 3 7.99008C3 5.34574 5.77887 5.71791 5.77887 5.71791C5.25888 6.24273 4.93692 6.93188 4.86792 7.66779C4.79892 8.4037 4.98714 9.14077 5.40049 9.75328C5.81383 10.3658 6.42668 10.8158 7.1345 11.0265C7.84231 11.2372 8.60124 11.1955 9.28181 10.9087C10.8278 11.7901 12.0802 10.9087 12.0802 10.9087Z"
fill="#53A526" />
<path
d="M7.14874 5.50249C7.74742 5.29728 8.3998 5.31398 8.98721 5.54955C9.57463 5.78512 10.0581 6.22391 10.3496 6.7861C10.6411 7.3483 10.7213 7.99655 10.5756 8.61293C10.4299 9.22932 10.068 9.77289 9.55579 10.1448C8.83172 10.2035 8.22506 8.02931 8.12722 7.69631C8.02937 7.36332 7.7554 6.14888 7.14874 5.50249Z"
fill="#71AEFD" />
<path
d="M6.42462 10.1449C6.0835 9.89727 5.8065 9.57158 5.61673 9.195C5.42697 8.81842 5.32996 8.40187 5.33379 7.98012C5.33762 7.55837 5.44218 7.14365 5.63875 6.77058C5.83532 6.39752 6.1182 6.07693 6.46376 5.83557C7.16827 6.20774 7.61836 7.59847 7.61836 7.59847C7.61836 7.59847 6.56161 9.59642 6.42462 10.1449ZM7.07042 10.4975C7.07042 10.4975 7.81406 10.85 8.8121 10.5366C8.22502 10.0469 7.87277 8.36239 7.77492 8.12734C7.63793 8.40156 6.93343 9.83147 7.07042 10.4975Z"
fill="#81D837" />
</g>
</svg>