<svg width="16" height="16" viewBox="0 0 16 16" fill="none" xmlns="http://www.w3.org/2000/svg">
	<g id="typescript">
		<path
			d="M3.92621 5.0746C4.54853 4.20643 5.42997 3.55823 6.44368 3.22327C7.4574 2.88831 8.55115 2.88386 9.56755 3.21055C10.584 3.53725 11.4706 4.17824 12.1 5.04132C12.7294 5.9044 13.069 6.94506 13.07 8.01358C13.07 10.6764 10.2717 10.3017 10.2717 10.3017C10.7953 9.77316 11.1195 9.07919 11.189 8.33813C11.2585 7.59708 11.0689 6.85485 10.6527 6.23806C10.2364 5.62127 9.61931 5.16814 8.90654 4.95597C8.19378 4.7438 7.42954 4.78572 6.74422 5.0746C5.18741 4.18699 3.92621 5.0746 3.92621 5.0746Z"
			fill="#466ACD" />
		<path
			d="M12.1437 10.9328C11.5214 11.8009 10.64 12.4491 9.62627 12.7841C8.61255 13.119 7.51881 13.1235 6.5024 12.7968C5.48599 12.4701 4.59932 11.8291 3.96996 10.966C3.3406 10.103 3.00099 9.06229 3 7.99377C3 5.33093 5.7983 5.7057 5.7983 5.7057C5.27468 6.2342 4.95047 6.92817 4.88098 7.66922C4.8115 8.41028 5.00104 9.15251 5.41727 9.76929C5.83351 10.3861 6.45065 10.8392 7.16341 11.0514C7.87618 11.2636 8.64041 11.2216 9.32574 10.9328C10.8825 11.8204 12.1437 10.9328 12.1437 10.9328Z"
			fill="#53A526" />
		<path
			d="M7.17773 5.48872C7.7806 5.28207 8.43754 5.29889 9.02906 5.53611C9.62058 5.77332 10.1074 6.21518 10.4009 6.78131C10.6945 7.34743 10.7752 8.00021 10.6285 8.62091C10.4819 9.24161 10.1174 9.78898 9.60162 10.1635C8.87248 10.2226 8.26158 8.0332 8.16305 7.69788C8.06452 7.36256 7.78863 6.13963 7.17773 5.48872Z"
			fill="#71AEFD" />
		<path
			d="M6.44855 10.1635C6.10504 9.9142 5.8261 9.58624 5.63501 9.20702C5.44392 8.82781 5.34623 8.40834 5.35009 7.98364C5.35394 7.55894 5.45924 7.14132 5.65718 6.76565C5.85513 6.38997 6.13998 6.06714 6.48796 5.8241C7.19739 6.19887 7.65064 7.59932 7.65064 7.59932C7.65064 7.59932 6.58649 9.61124 6.44855 10.1635ZM7.09886 10.5186C7.09886 10.5186 7.8477 10.8736 8.85273 10.558C8.26153 10.0649 7.90682 8.36858 7.80829 8.13189C7.67034 8.40803 6.96092 9.84794 7.09886 10.5186Z"
			fill="#81D837" />
	</g>
</svg>